<?xml version="1.0" encoding="UTF-8"?>
<svg xmlns="http://www.w3.org/2000/svg" width="900" height="900" viewBox="0 0 900 900" role="img" aria-label="Old fashioned light-gold ink stamp seal with letter P and fern">
  <defs>
    <!-- Matte light-gold ink tones -->
    <radialGradient id="paperWarm" cx="38%" cy="30%" r="80%">
      <stop offset="0" stop-color="#FFF7DE"/>
      <stop offset="1" stop-color="#F3E7C6"/>
    </radialGradient>

    <radialGradient id="sealFill" cx="40%" cy="35%" r="75%">
      <stop offset="0" stop-color="#F3DEAA"/>
      <stop offset="0.6" stop-color="#E2C67B"/>
      <stop offset="1" stop-color="#C9A24B"/>
    </radialGradient>

    <!-- Ink gradients for edges/details -->
    <linearGradient id="inkStroke" x1="0" y1="0" x2="1" y2="1">
      <stop offset="0" stop-color="#F7E7B2"/>
      <stop offset="0.55" stop-color="#DDBB63"/>
      <stop offset="1" stop-color="#A77E2C"/>
    </linearGradient>

    <!-- Soft shadow (subtle, stamp-like) -->
    <filter id="softShadow" x="-25%" y="-25%" width="150%" height="150%">
      <feOffset dx="0" dy="10" in="SourceAlpha" result="off"/>
      <feGaussianBlur in="off" stdDeviation="12" result="blur"/>
      <feColorMatrix in="blur" type="matrix"
        values="0 0 0 0 0
                0 0 0 0 0
                0 0 0 0 0
                0 0 0 0.22 0" result="sh"/>
      <feMerge>
        <feMergeNode in="sh"/>
        <feMergeNode in="SourceGraphic"/>
      </feMerge>
    </filter>

    <!-- Paper grain -->
    <filter id="paperGrain" x="-10%" y="-10%" width="120%" height="120%">
      <feTurbulence type="fractalNoise" baseFrequency="0.9" numOctaves="2" stitchTiles="stitch" result="n"/>
      <feColorMatrix in="n" type="matrix"
        values="1 0 0 0 0
                0 1 0 0 0
                0 0 1 0 0
                0 0 0 0.06 0" result="na"/>
      <feBlend mode="multiply" in="SourceGraphic" in2="na"/>
    </filter>

    <!-- Rough edge distortion (bleed) -->
    <filter id="bleed" x="-30%" y="-30%" width="160%" height="160%">
      <feTurbulence type="fractalNoise" baseFrequency="0.012" numOctaves="3" seed="7" result="t"/>
      <feDisplacementMap in="SourceGraphic" in2="t" scale="22" xChannelSelector="R" yChannelSelector="G"/>
    </filter>

    <!-- Extra rough (for double-impression) -->
    <filter id="bleed2" x="-30%" y="-30%" width="160%" height="160%">
      <feTurbulence type="fractalNoise" baseFrequency="0.014" numOctaves="3" seed="11" result="t"/>
      <feDisplacementMap in="SourceGraphic" in2="t" scale="26" xChannelSelector="R" yChannelSelector="G"/>
    </filter>

    <!-- Ink softening / feathering -->
    <filter id="feather" x="-25%" y="-25%" width="150%" height="150%">
      <feGaussianBlur stdDeviation="1.6" result="b"/>
      <feMerge>
        <feMergeNode in="b"/>
        <feMergeNode in="SourceGraphic"/>
      </feMerge>
    </filter>

    <!-- Deboss/indent feel (flattened, more ink than metal) -->
    <filter id="indentInk" x="-30%" y="-30%" width="160%" height="160%">
      <feOffset dx="0" dy="3" in="SourceAlpha" result="off"/>
      <feGaussianBlur in="off" stdDeviation="4" result="blur"/>
      <feComposite in="blur" in2="SourceAlpha" operator="out" result="innerShadow"/>
      <feColorMatrix in="innerShadow" type="matrix"
        values="0 0 0 0 0.35
                0 0 0 0 0.25
                0 0 0 0 0.08
                0 0 0 0.55 0" result="shadowColor"/>
      <feMerge>
        <feMergeNode in="shadowColor"/>
        <feMergeNode in="SourceGraphic"/>
      </feMerge>
    </filter>

    <!-- Clip for keeping artwork inside inner plate -->
    <clipPath id="plateClip">
      <circle cx="450" cy="450" r="258"/>
    </clipPath>
  </defs>

  <!-- Optional warm paper background (set fill="none" if you want transparent) -->
  <rect width="100%" height="100%" fill="url(#paperWarm)"/>

  <g filter="url(#softShadow)">
    <!-- Main seal body (matte) -->
    <circle cx="450" cy="450" r="335" fill="url(#sealFill)" opacity="0.92" filter="url(#paperGrain)"/>

    <!-- Thick ink edge: base impression -->
    <g opacity="0.92" filter="url(#bleed)">
      <circle cx="450" cy="450" r="325"
              fill="none"
              stroke="#B1852B"
              stroke-width="44"
              stroke-linecap="round"/>
    </g>

    <!-- Double-impression: slightly offset, lighter -->
    <g opacity="0.55" filter="url(#bleed2)" transform="translate(6 -4)">
      <circle cx="450" cy="450" r="323"
              fill="none"
              stroke="#D6B25C"
              stroke-width="34"
              stroke-linecap="round"/>
    </g>

    <!-- Inner plate (kept matte; minimal shine) -->
    <circle cx="450" cy="450" r="260" fill="#EAD08B" opacity="0.80" filter="url(#paperGrain)"/>
    <circle cx="450" cy="450" r="260" fill="none" stroke="#9D7325" stroke-width="6" opacity="0.35"/>
    <circle cx="450" cy="450" r="248" fill="none" stroke="#F7E7B2" stroke-width="4" opacity="0.18"/>

    <!-- Artwork clipped to inner plate -->
    <g clip-path="url(#plateClip)">
      <!-- Fern behind the P (simple, emblem-like) -->
      <g transform="translate(450 470)" opacity="0.82" filter="url(#indentInk)">
        <!-- stem -->
        <path d="M0 -210 C0 -170, 0 -120, 0 -60 C0 10, 0 60, 0 150"
              fill="none" stroke="#A77E2C" stroke-width="12" stroke-linecap="round" opacity="0.70"/>

        <!-- left leaflets -->
        <g fill="none" stroke="#B8923F" stroke-width="10" stroke-linecap="round" opacity="0.62">
          <path d="M-8 -170 C-80 -175, -130 -150, -160 -118"/>
          <path d="M-6 -135 C-85 -140, -140 -110, -170 -78"/>
          <path d="M-4 -98  C-90 -100, -150 -70,  -176 -38"/>
          <path d="M-2 -62  C-86 -58,  -145 -28,  -168 6"/>
          <path d="M0 -25   C-78 -18,  -128 10,  -150 44"/>
          <path d="M1 12    C-66 18,   -112 45,  -132 76"/>
          <path d="M2 48    C-54 55,   -92 78,   -108 104"/>
          <path d="M3 86    C-42 92,   -74 110,  -86 130"/>
        </g>

        <!-- right leaflets -->
        <g fill="none" stroke="#B8923F" stroke-width="10" stroke-linecap="round" opacity="0.62">
          <path d="M8 -170  C80 -175, 130 -150, 160 -118"/>
          <path d="M6 -135  C85 -140, 140 -110, 170 -78"/>
          <path d="M4 -98   C90 -100, 150 -70,  176 -38"/>
          <path d="M2 -62   C86 -58,  145 -28,  168 6"/>
          <path d="M0 -25   C78 -18,  128 10,  150 44"/>
          <path d="M-1 12   C66 18,   112 45,  132 76"/>
          <path d="M-2 48   C54 55,   92 78,   108 104"/>
          <path d="M-3 86   C42 92,   74 110,  86 130"/>
        </g>

        <!-- tiny dots for antique feel -->
        <g fill="#A77E2C" opacity="0.35">
          <circle cx="-155" cy="-118" r="5"/>
          <circle cx="155" cy="-118" r="5"/>
          <circle cx="-172" cy="-78" r="4"/>
          <circle cx="172" cy="-78" r="4"/>
          <circle cx="-150" cy="44" r="4"/>
          <circle cx="150" cy="44" r="4"/>
        </g>
      </g>

      <!-- Old-fashioned P (inked + indented) -->
      <!-- Under-blur layer for ink bleed -->
      <text x="450" y="565"
            text-anchor="middle"
            font-family="Garamond, 'Palatino Linotype', 'Times New Roman', serif"
            font-size="380"
            font-weight="700"
            fill="#B1852B"
            opacity="0.55"
            filter="url(#feather)">P</text>

      <!-- Main engraved/ink layer -->
      <text x="450" y="565"
            text-anchor="middle"
            font-family="Garamond, 'Palatino Linotype', 'Times New Roman', serif"
            font-size="380"
            font-weight="700"
            fill="#C9A24B"
            stroke="#8F6620"
            stroke-width="8"
            paint-order="stroke"
            opacity="0.95"
            filter="url(#indentInk)">P</text>

      <!-- Slight offset second impression (faint) -->
      <g transform="translate(5 -3)" opacity="0.35" filter="url(#feather)">
        <text x="450" y="565"
              text-anchor="middle"
              font-family="Garamond, 'Palatino Linotype', 'Times New Roman', serif"
              font-size="380"
              font-weight="700"
              fill="#DDBB63"
              stroke="#A77E2C"
              stroke-width="6"
              paint-order="stroke">P</text>
      </g>
    </g>

    <!-- Flatten highlights: keep only a very subtle smudge (optional) -->
    <path d="M270 320 C340 275, 430 255, 545 285"
          fill="none" stroke="#FFF7DE" stroke-width="14" opacity="0.05" stroke-linecap="round"/>
  </g>
</svg>
